<svg width="56" height="56" viewBox="0 0 56 56" fill="none" xmlns="http://www.w3.org/2000/svg">
<path d="M18.5297 42C17.8364 39.0306 14.7103 36.6 13.4265 34.9982C10.8657 31.8027 9.33398 27.7469 9.33398 23.3334C9.33398 13.024 17.6913 4.66669 28.0007 4.66669C38.31 4.66669 46.6673 13.024 46.6673 23.3334C46.6673 27.7492 45.1339 31.8069 42.5707 35.0033C41.2876 36.603 38.1642 39.0311 37.4716 42H18.5297ZM37.334 46.6667V49C37.334 51.5774 35.2447 53.6667 32.6673 53.6667H23.334C20.7567 53.6667 18.6673 51.5774 18.6673 49V46.6667H37.334ZM30.334 23.3446V14L19.834 28.0112H25.6673V37.3446L36.1673 23.3446H30.334Z" fill="#EFC26D"/>
</svg>
