<svg width="56" height="56" viewBox="0 0 56 56" fill="none" xmlns="http://www.w3.org/2000/svg">
<path d="M7.00072 41.9998H49.0006C49.6451 41.9998 50.1673 42.5222 50.1673 43.1665C50.1673 43.4189 50.0854 43.6646 49.934 43.8665L45.034 50.3998C44.5934 50.9873 43.9018 51.3331 43.1673 51.3331H12.8341C12.0996 51.3331 11.408 50.9873 10.9674 50.3998L6.06739 43.8665C5.68078 43.351 5.78527 42.6198 6.30072 42.2331C6.50267 42.0817 6.74828 41.9998 7.00072 41.9998ZM35.0007 5.65908V34.9998C35.0007 36.2885 33.956 37.3331 32.6673 37.3331H9.42811C8.78378 37.3331 8.26144 36.8109 8.26144 36.1665C8.26144 35.9016 8.3516 35.6445 8.51711 35.4378L32.923 4.93026C33.3256 4.42713 34.0596 4.34555 34.5629 4.74808C34.8396 4.96946 35.0007 5.30467 35.0007 5.65908Z" fill="#FF8080"/>
</svg>
