<svg width="55" height="47" viewBox="0 0 55 47" fill="none" xmlns="http://www.w3.org/2000/svg">
<g clip-path="url(#clip0_432_302)">
<path d="M47.5018 41.0551C47.5018 42.3883 47.51 43.6654 47.5018 44.9414C47.4912 46.2524 46.6174 47.1574 45.4344 46.9767C44.9431 46.8784 44.4911 46.6401 44.1331 46.2908C42.4875 44.714 40.8828 43.0962 39.2817 41.475C39.1549 41.3331 38.998 41.2209 38.8224 41.1467C38.6468 41.0725 38.4568 41.038 38.2662 41.0458C34.381 41.0633 30.4971 41.0575 26.6131 41.0551C22.6647 41.0551 20.007 38.4052 20.0059 34.4723C20.0059 29.7105 20.0059 24.9484 20.0059 20.1858C20.0059 16.3731 22.6916 13.6835 26.5194 13.6788C33.8391 13.6695 41.1589 13.6695 48.4786 13.6788C52.3029 13.6858 54.9874 16.3766 54.9945 20.194C55.0038 24.9752 55.0038 29.7572 54.9945 34.54C54.9945 38.3889 52.3005 41.0516 48.4282 41.0563L47.5018 41.0551ZM37.4896 30.908C37.2659 30.705 37.0293 30.5499 36.8735 30.3365C36.3008 29.5562 35.7327 28.7713 35.2044 27.9606C34.7851 27.318 34.1409 27.0707 33.5119 27.3868C32.883 27.7029 32.6616 28.3817 32.9696 29.0768C33.0591 29.2928 33.1697 29.4995 33.2999 29.6938C33.9125 30.5604 34.5392 31.4177 35.174 32.2948C34.1292 32.7613 32.9813 32.9316 31.8089 32.9817C31.2408 33.0062 30.8379 33.257 30.6552 33.7982C30.3635 34.6531 30.9995 35.4579 31.9822 35.4509C33.7643 35.4457 35.5171 34.9996 37.0832 34.1527C37.4252 33.9696 37.6688 33.9906 37.9874 34.1621C39.5594 34.9971 41.3114 35.4397 43.093 35.452C43.9422 35.4625 44.4693 34.8852 44.3815 34.0863C44.3147 33.4634 43.8485 33.0366 43.1516 32.9887C42.0014 32.9129 40.8641 32.7835 39.7549 32.2493C41.5738 30.4455 42.733 28.0867 43.0474 25.5498L43.6072 25.5172C44.4834 25.4682 44.9812 25.0028 44.9706 24.2447C44.9601 23.4866 44.4471 23.0305 43.5651 23.0165C42.6093 23.0025 41.6524 23.0165 40.6966 23.0165H38.7441C38.7441 22.2246 38.7441 21.5085 38.7441 20.7935C38.7441 19.8604 38.2556 19.2772 37.4861 19.2866C36.7388 19.2936 36.2656 19.8534 36.2574 20.7573C36.2504 21.4898 36.2574 22.2234 36.2574 23.0165H35.5547C34.1889 23.0165 32.8224 23.0165 31.4552 23.0165C30.8391 23.0165 30.3354 23.2136 30.0918 23.8178C29.7404 24.6937 30.3916 25.5137 31.4645 25.5172C34.2545 25.5277 37.0445 25.5172 39.8345 25.5172H40.5139C40.1484 27.7192 39.161 29.4792 37.4896 30.908Z" fill="#8162EE"/>
<path d="M17.4705 27.2993C17.4049 27.3355 17.3862 27.3553 17.3721 27.353C16.3062 27.1699 15.6679 27.8009 15.0049 28.4948C13.6861 29.8746 12.3004 31.1891 10.9617 32.5479C10.3034 33.215 9.569 33.5684 8.65189 33.1765C7.76522 32.7986 7.4806 32.051 7.49583 31.1389C7.51106 29.9166 7.49583 28.6955 7.49583 27.3833C7.13273 27.3833 6.80946 27.3833 6.48618 27.3833C2.69122 27.346 0.0101492 24.6716 0.00195017 20.8938C-0.00585839 16.1126 -0.00585839 11.3306 0.00195017 6.54782C0.00195017 2.65808 2.68536 0.00232601 6.59277 0.00115967C13.8547 0.00115967 21.1167 0.00115967 28.3787 0.00115967C32.3364 0.00115967 34.9929 2.64059 34.9976 6.56882C34.9976 8.08506 34.9976 9.6013 34.9976 11.1969H34.351C31.9124 11.1969 29.4715 11.2307 27.0329 11.1875C24.989 11.1502 23.0798 11.5293 21.31 12.7376C21.2139 12.5475 21.1261 12.3877 21.0499 12.2209C20.2816 10.5449 19.5027 8.87234 18.753 7.18698C18.5 6.61664 18.1287 6.22242 17.4939 6.22592C16.8872 6.22592 16.5159 6.60498 16.2676 7.15082C14.26 11.5697 12.245 15.9862 10.2226 20.4004C9.96958 20.9545 9.90985 21.4886 10.3655 21.9657C10.7555 22.3739 11.258 22.5139 11.7488 22.2444C12.0613 22.0572 12.313 21.7843 12.4738 21.4583C13.0594 20.2733 13.5959 19.0673 14.123 17.8578C14.2682 17.5243 14.4474 17.3913 14.8187 17.4006C15.8084 17.4263 16.7993 17.41 17.7996 17.41C17.2245 20.7294 17.679 24.0161 17.4705 27.2993Z" fill="#8162EE"/>
<path d="M17.5021 10.4772C18.1252 11.8419 18.7179 13.1027 19.259 14.3856C19.3047 14.4929 19.0154 14.8977 18.8713 14.9035C17.768 14.9478 16.6623 14.928 15.4746 14.928C16.1563 13.4269 16.8052 12.0051 17.5021 10.4772Z" fill="#8162EE"/>
</g>
<defs>
<clipPath id="clip0_432_302">
<rect width="55" height="47" fill="white"/>
</clipPath>
</defs>
</svg>
