<svg width="50" height="59" viewBox="0 0 50 59" fill="none" xmlns="http://www.w3.org/2000/svg">
<g clip-path="url(#clip0_432_294)">
<path d="M24.299 20.0663C24.299 16.4504 24.299 12.8351 24.299 9.22026C24.299 8.8091 24.2878 8.40583 23.7905 8.27508C23.2931 8.14433 23.0492 8.48617 22.8484 8.88314C18.5571 17.3783 14.2589 25.8702 9.95386 34.359C9.84044 34.5515 9.78069 34.7703 9.78069 34.9931C9.78069 35.2158 9.84044 35.4346 9.95386 35.6271C11.5161 38.6727 13.0618 41.7257 14.591 44.786C14.7712 45.1483 14.9641 45.298 15.3881 45.2964C21.7899 45.2827 28.1918 45.2827 34.5936 45.2964C35.0208 45.2964 35.2153 45.1515 35.3906 44.7876C36.9029 41.7619 38.4316 38.7441 39.9768 35.7343C40.1104 35.5096 40.1808 35.2537 40.1808 34.9931C40.1808 34.7325 40.1104 34.4766 39.9768 34.2519C35.8949 26.221 31.8236 18.1869 27.7629 10.1497C27.5063 9.64087 27.2943 9.10054 26.9659 8.63739C26.8688 8.52936 26.7478 8.44478 26.6124 8.39016C26.477 8.33554 26.3307 8.31234 26.1848 8.32233C25.9855 8.35699 25.8325 8.71301 25.6922 8.94458C25.6396 9.0328 25.6795 9.17615 25.6795 9.2943C25.6795 16.4651 25.6795 23.6364 25.6795 30.8083C25.6795 31.3423 25.8389 31.6668 26.3346 31.9299C26.8746 32.2158 27.3006 32.674 27.5432 33.2299C27.7858 33.7857 27.8307 34.4064 27.6705 34.9907C27.5187 35.5758 27.1759 36.0951 26.6952 36.4682C26.2145 36.8413 25.6227 37.0473 25.0116 37.0544C24.3909 37.0578 23.7868 36.8559 23.2957 36.4808C22.8046 36.1056 22.4547 35.5789 22.3016 34.9844C22.1429 34.3997 22.1894 33.7791 22.4334 33.2238C22.6774 32.6685 23.1047 32.2113 23.6454 31.9267C24.1428 31.6637 24.299 31.3329 24.2958 30.802C24.291 27.2181 24.299 23.6422 24.299 20.0663ZM27.7661 3.68306C38.633 4.77789 46.5444 14.5369 46.4169 24.0234C46.0264 24.0234 45.6326 24.0234 45.2405 24.0234C44.7112 24.0345 44.4434 24.2928 44.4434 24.8316C44.4434 26.1076 44.4434 27.3851 44.4434 28.6627C44.4434 29.2787 44.6825 29.5055 45.3186 29.5086C46.5938 29.517 47.8665 29.517 49.1364 29.5086C49.7342 29.5086 49.9717 29.2787 49.9781 28.6863C49.9924 27.4088 49.9781 26.1312 49.9781 24.8536C49.9781 24.2928 49.7007 24.0203 49.138 24.0218H47.9584C47.1613 14.2045 42.2771 7.39133 33.1223 3.44676C36.8141 3.44676 40.3721 3.44676 43.9317 3.44676C44.3271 3.44676 44.5439 3.52237 44.7288 3.92723C44.9927 4.49711 45.4494 4.95828 46.0202 5.23142C46.591 5.50455 47.2403 5.57256 47.8564 5.42377C48.4618 5.28328 49.0023 4.9468 49.3919 4.46783C49.7816 3.98886 49.998 3.3949 50.0068 2.7804C50.0137 2.15493 49.8043 1.54586 49.4133 1.05399C49.0222 0.56213 48.473 0.216958 47.8564 0.0755994C47.2414 -0.0724284 46.5935 -0.00397543 46.0241 0.269174C45.4547 0.542323 44.9994 1.00308 44.7367 1.57214C44.5582 1.97227 44.343 2.05891 43.9397 2.05891C38.7696 2.04841 33.5994 2.04526 28.4293 2.04946C28.2189 2.04946 28.01 2.02898 27.7614 2.01638C27.7614 1.56269 27.7614 1.17201 27.7614 0.781336C27.7614 0.278813 27.5063 0.0141633 26.993 0.012588C25.6604 0.012588 24.3282 0.012588 22.9966 0.012588C22.4833 0.012588 22.2315 0.280389 22.2315 0.784488C22.2315 1.18934 22.2315 1.59577 22.2315 2.0148C22.0147 2.03056 21.8776 2.04946 21.7421 2.04946C16.4721 2.04946 11.202 2.05261 5.93198 2.05891C5.57491 2.05891 5.42825 1.93131 5.29435 1.62255C5.03953 1.05065 4.59293 0.583077 4.02987 0.298692C3.46681 0.0143068 2.82173 -0.069494 2.20342 0.0614222C1.58555 0.193085 1.03125 0.528201 0.631299 1.01188C0.231349 1.49555 0.00946407 2.09911 0.00199449 2.72369C-0.00144362 3.348 0.209536 3.95499 0.600437 4.44545C0.991338 4.9359 1.53904 5.2808 2.15401 5.42377C2.78006 5.57074 3.43853 5.49436 4.01314 5.20814C4.58775 4.92191 5.04153 4.44425 5.29435 3.85949C5.45376 3.49717 5.64824 3.43258 6.00212 3.43415C9.44215 3.44518 12.8838 3.43416 16.3238 3.44203C16.4673 3.44203 16.6107 3.45306 16.8212 3.46251C7.69026 7.41181 2.79323 14.2329 2.03445 24.0171C1.62158 24.0171 1.20872 24.0092 0.795849 24.0171C0.292119 24.0266 0.0195304 24.2818 0.0179363 24.7875C0.0179363 26.1028 0.0179363 27.4198 0.0179363 28.7367C0.0179363 29.2345 0.288933 29.5008 0.797445 29.5008C2.1301 29.5008 3.46275 29.5008 4.7954 29.5008C5.27363 29.5008 5.54781 29.2519 5.551 28.7746C5.56056 27.4387 5.551 26.0965 5.551 24.767C5.551 24.2865 5.2816 24.0408 4.81294 24.0218C4.40167 24.0045 3.9872 24.0218 3.48985 24.0218C3.72896 18.4831 5.72156 13.7556 9.57765 9.83621C13.0288 6.32957 17.2404 4.28482 22.2331 3.62319C22.2331 4.07216 22.2331 4.42188 22.2331 4.77159C22.2426 5.21898 22.4802 5.47261 22.9361 5.47576C24.307 5.48311 25.6789 5.48311 27.052 5.47576C27.5063 5.47576 27.7454 5.22055 27.7566 4.77317C27.7709 4.4203 27.7709 4.07058 27.7709 3.67675L27.7661 3.68306ZM25.0052 52.1505H36.5113C37.2812 52.1505 37.5028 51.9331 37.506 51.1707C37.5124 49.9924 37.5124 48.814 37.506 47.6357C37.506 46.8937 37.2892 46.6637 36.5623 46.6637C28.8512 46.6637 21.1406 46.6637 13.4306 46.6637C12.7307 46.6637 12.5028 46.8969 12.498 47.5869C12.4884 48.7652 12.498 49.9498 12.498 51.1219C12.498 51.9536 12.7052 52.1505 13.5613 52.1505H25.0052ZM35.4002 53.5778H14.5974V57.85C14.5974 58.8913 14.7106 59.0047 15.7531 59.0047H34.2445C34.4039 59.0047 34.5633 59.0047 34.7227 59.0047C35.1451 58.9748 35.3938 58.7479 35.397 58.3305C35.4066 56.7489 35.4002 55.1814 35.4002 53.5715V53.5778Z" fill="white"/>
<path d="M24.2983 20.0663C24.2983 23.6422 24.2904 27.2182 24.2983 30.7941C24.2983 31.325 24.1389 31.6558 23.6479 31.9189C23.1072 32.2034 22.68 32.6606 22.4359 33.2159C22.1919 33.7712 22.1454 34.3919 22.3041 34.9766C22.4572 35.5711 22.8071 36.0978 23.2982 36.4729C23.7893 36.8481 24.3934 37.05 25.0141 37.0465C25.6253 37.0395 26.217 36.8334 26.6977 36.4604C27.1784 36.0873 27.5212 35.568 27.673 34.9829C27.8332 34.3986 27.7883 33.7779 27.5457 33.2221C27.3031 32.6662 26.8771 32.208 26.3372 31.9221C25.8446 31.659 25.6804 31.3345 25.682 30.8004C25.6947 23.6275 25.6947 16.4562 25.682 9.28647C25.682 9.16832 25.6421 9.02497 25.6948 8.93675C25.835 8.70518 25.9881 8.34916 26.1873 8.3145C26.3332 8.3045 26.4795 8.32771 26.6149 8.38232C26.7503 8.43694 26.8713 8.52152 26.9684 8.62956C27.2872 9.0927 27.5056 9.63303 27.7655 10.1419C31.8336 18.1791 35.9049 26.2132 39.9793 34.2441C40.1129 34.4688 40.1833 34.7246 40.1833 34.9852C40.1833 35.2458 40.1129 35.5017 39.9793 35.7264C38.4299 38.7321 36.9012 41.7499 35.3932 44.7797C35.2114 45.1436 35.0169 45.2901 34.5961 45.2886C28.1943 45.2749 21.7924 45.2749 15.3906 45.2886C14.9618 45.2886 14.7689 45.1405 14.5936 44.7781C13.0632 41.7178 11.5175 38.6649 9.95637 35.6193C9.84296 35.4268 9.7832 35.208 9.7832 34.9852C9.7832 34.7625 9.84296 34.5437 9.95637 34.3512C14.2636 25.8645 18.5618 17.3725 22.8509 8.87531C23.0518 8.47833 23.2749 8.13649 23.793 8.26724C24.3111 8.39799 24.3031 8.79655 24.3015 9.21243C24.2973 12.8325 24.2962 16.4504 24.2983 20.0663Z" fill="#679EC5"/>
<path d="M27.7702 3.67675C27.7702 4.07058 27.7702 4.4203 27.7702 4.77002C27.7591 5.2174 27.52 5.46945 27.0657 5.4726C25.6937 5.48205 24.3217 5.48205 22.9497 5.4726C22.4938 5.4726 22.2563 5.21583 22.2467 4.76844C22.2372 4.41872 22.2467 4.06901 22.2467 3.62004C17.2541 4.28167 13.0425 6.32642 9.59132 9.83306C5.73204 13.7524 3.74263 18.4799 3.50352 24.0187C4.00087 24.0187 4.41533 24.0045 4.82661 24.0187C5.29527 24.0376 5.56467 24.2834 5.56467 24.7638C5.56467 26.0997 5.57264 27.4418 5.56467 28.7714C5.56467 29.244 5.28092 29.4945 4.80907 29.4976C3.47642 29.5055 2.14377 29.4976 0.811112 29.4976C0.3026 29.4976 0.0347915 29.2314 0.0316033 28.7336C0.0236329 27.4166 0.0316033 26.0997 0.0316033 24.7843C0.0316033 24.2786 0.305786 24.0234 0.809516 24.014C1.22238 24.0045 1.63525 24.014 2.04812 24.014C2.81169 14.2297 7.70392 7.40866 16.8348 3.45936C16.6244 3.44991 16.4809 3.43888 16.3375 3.43888C12.8974 3.43888 9.45582 3.43888 6.01579 3.43101C5.66191 3.43101 5.46743 3.49402 5.30802 3.85634C5.0552 4.4411 4.60141 4.91877 4.02681 5.20499C3.4522 5.49122 2.79373 5.56759 2.16768 5.42062C1.55271 5.27765 1.00501 4.93275 0.614104 4.4423C0.223203 3.95184 0.0122283 3.34485 0.0156664 2.72054C0.0231359 2.09596 0.245016 1.4924 0.644966 1.00872C1.04492 0.525049 1.59923 0.189934 2.21709 0.0582709C2.83365 -0.0688641 3.47569 0.0171482 4.03575 0.301908C4.59581 0.586668 5.03989 1.05289 5.29367 1.62255C5.43395 1.93761 5.58061 2.06049 5.93131 2.05891C11.2013 2.04841 16.4714 2.04526 21.7414 2.04946C21.8769 2.04946 22.014 2.03056 22.2308 2.01481C22.2308 1.59577 22.2308 1.18934 22.2308 0.784488C22.2308 0.280389 22.4827 0.0141633 22.996 0.012588C24.3286 0.012588 25.6607 0.012588 26.9923 0.012588C27.5056 0.012588 27.7591 0.278813 27.7607 0.781337C27.7607 1.17201 27.7607 1.56899 27.7607 2.01638C28.0094 2.02898 28.2182 2.04946 28.4286 2.04946C33.5977 2.04946 38.7678 2.05261 43.939 2.05891C44.3375 2.05891 44.5527 1.97227 44.7361 1.57214C44.9988 1.00308 45.454 0.542324 46.0234 0.269174C46.5928 -0.00397543 47.2407 -0.0724284 47.8557 0.0755994C48.4711 0.218194 49.0189 0.563896 49.4087 1.05564C49.7985 1.54739 50.007 2.15578 49.9997 2.7804C49.9913 3.39405 49.7758 3.98735 49.3874 4.4662C48.999 4.94506 48.4599 5.28207 47.8557 5.42377C47.2397 5.56883 46.5919 5.49757 46.0233 5.22221C45.4546 4.94686 45.0007 4.48457 44.7393 3.91463C44.5607 3.50977 44.3439 3.43258 43.9422 3.43415C40.3826 3.44518 36.8246 3.43415 33.1327 3.43415C42.2876 7.37242 47.1798 14.1919 47.9689 24.0093H49.1485C49.7112 24.0093 49.9902 24.2802 49.9886 24.841C49.9886 26.1186 49.9965 27.3962 49.9886 28.6737C49.9886 29.2661 49.7447 29.4913 49.1469 29.496C47.8716 29.5044 46.599 29.5044 45.3291 29.496C44.6914 29.496 44.4571 29.2661 44.4539 28.6501C44.4459 27.3725 44.4539 26.095 44.4539 24.819C44.4539 24.2802 44.7265 24.0219 45.251 24.0108C45.6431 24.0108 46.0368 24.0108 46.4274 24.0108C46.5438 14.5306 38.6323 4.77159 27.7702 3.67675Z" fill="#679EC5"/>
<path d="M25.0045 52.1443H13.559C12.703 52.1443 12.4973 51.9474 12.4957 51.1156C12.4957 49.9373 12.4878 48.7526 12.4957 47.5806C12.4957 46.8906 12.7285 46.6575 13.4283 46.6575C21.1394 46.6575 28.85 46.6575 36.56 46.6575C37.2869 46.6575 37.5005 46.8875 37.5037 47.6294C37.5101 48.8078 37.5101 49.9861 37.5037 51.1644C37.5037 51.9269 37.2789 52.1443 36.509 52.1443H25.0045Z" fill="#679EC5"/>
<path d="M35.3992 53.5715C35.3992 55.1814 35.3992 56.7489 35.3992 58.3179C35.3992 58.7353 35.1473 58.9622 34.7249 58.9921C34.5655 59.0031 34.4061 58.9921 34.2467 58.9921H15.7553C14.7128 58.9921 14.6012 58.8787 14.5996 57.8374V53.5715H35.3992Z" fill="#679EC5"/>
</g>
<defs>
<clipPath id="clip0_432_294">
<rect width="50" height="59" fill="white"/>
</clipPath>
</defs>
</svg>
